<svg xmlns="http://www.w3.org/2000/svg" width="16.877" height="16.877" viewBox="0 0 16.877 16.877">
  <g id="Display" transform="translate(-0.25 -0.25)">
    <path id="Path_94" data-name="Path 94" d="M1,7.291c0,2.887.391,4.315,1.352,5.116a4.767,4.767,0,0,0,2.239.9,23.38,23.38,0,0,0,4.1.271,23.381,23.381,0,0,0,4.1-.271,4.767,4.767,0,0,0,2.239-.9c.961-.8,1.352-2.23,1.352-5.116s-.391-4.315-1.352-5.116a4.766,4.766,0,0,0-2.239-.9A23.38,23.38,0,0,0,8.688,1a23.379,23.379,0,0,0-4.1.271,4.766,4.766,0,0,0-2.239.9C1.391,2.975,1,4.4,1,7.291Z" fill="none" stroke="#5d5d5d" stroke-linecap="round" stroke-linejoin="round" stroke-width="1.5"/>
    <path id="Path_95" data-name="Path 95" d="M10.8,20v2.1h2.8" transform="translate(-2.107 -5.72)" fill="none" stroke="#5d5d5d" stroke-linecap="round" stroke-linejoin="round" stroke-width="1.5"/>
  </g>
</svg>
